<svg version="1.1" id="Layer_1" xmlns="http://www.w3.org/2000/svg" xmlns:xlink="http://www.w3.org/1999/xlink" x="0px" y="0px"
	 width="100%" viewBox="0 0 1024 1024" enable-background="new 0 0 1024 1024" xml:space="preserve">
<path fill="#000000" opacity="1.000000" stroke="none" 
	d="
M475.187958,444.212280 
	C484.961578,429.680725 494.136230,415.170135 504.607391,401.563324 
	C511.204773,392.990295 516.661255,392.990723 523.301331,401.636932 
	C526.644348,405.989929 529.807129,410.532104 532.561218,415.273468 
	C535.793457,420.838013 540.391418,422.721619 546.619385,422.701630 
	C585.951416,422.575409 625.284973,422.776337 664.615479,422.501434 
	C670.610474,422.459564 674.433716,424.175262 677.868469,429.090637 
	C710.504944,475.796021 745.169739,521.058777 776.977905,568.356262 
	C777.070862,568.494568 777.172302,568.628540 777.251587,568.774353 
	C778.412598,570.906982 781.052856,572.953735 779.731689,575.424866 
	C778.445068,577.831543 775.307800,577.260986 772.841736,577.266113 
	C750.009033,577.313110 727.174316,577.167664 704.344971,577.457336 
	C698.943298,577.525879 695.285339,575.724426 691.986633,571.628052 
	C682.373535,559.690552 672.522949,547.943787 662.719177,536.160706 
	C660.606140,533.621033 658.607056,530.939514 655.826172,528.964844 
	C653.181702,529.573547 652.242249,531.890320 650.870361,533.658569 
	C634.514587,554.739441 614.425232,570.074158 587.498596,574.858582 
	C579.965088,576.197144 572.413635,577.324951 564.706055,577.313232 
	C526.707031,577.255310 488.701874,577.713013 450.711121,577.155151 
	C429.205811,576.839417 407.833618,573.526367 387.683167,565.821411 
	C357.254272,554.186218 338.554871,532.058594 333.911835,499.458496 
	C330.160522,473.119049 336.859161,448.789459 351.569550,426.879242 
	C376.090546,390.356689 402.766388,355.369720 428.787079,319.918610 
	C453.527344,286.212036 478.282623,252.516495 503.034119,218.818222 
	C504.217865,217.206604 505.410126,215.600540 506.631226,214.017242 
	C511.624939,207.542389 514.135559,207.366760 519.262146,214.057480 
	C529.190247,227.014557 538.914429,240.130829 548.565674,253.296524 
	C578.310364,293.872559 608.419312,334.183685 637.470764,375.264099 
	C639.300354,377.851257 642.709839,380.386688 640.926941,384.026825 
	C639.083557,387.790222 634.849548,387.019196 631.517639,387.053467 
	C616.019958,387.213013 600.519470,387.117554 585.020020,387.100159 
	C580.107666,387.094666 576.216309,385.529266 573.148499,381.225464 
	C567.159302,372.823395 561.090698,364.460693 554.122925,356.791107 
	C531.648499,332.052948 497.682312,332.177429 475.243622,357.009247 
	C451.362915,383.436829 431.297943,412.680176 411.901581,442.416260 
	C403.155029,455.825378 399.503235,470.352844 403.918732,486.180023 
	C409.504852,506.203125 426.999481,519.356384 449.224213,520.706726 
	C485.020355,522.881714 520.844238,521.696960 556.652710,521.513245 
	C569.580688,521.446899 581.071960,516.613037 589.968140,506.761536 
	C596.235657,499.820953 601.713318,492.272522 606.648926,484.334900 
	C607.423706,483.088867 608.312561,481.822479 608.130249,480.056335 
	C605.975708,477.604156 602.969360,478.344940 600.262268,478.341980 
	C558.263367,478.296173 516.264343,478.323303 474.265350,478.313904 
	C459.983337,478.310730 457.427887,473.921173 464.320221,461.402191 
	C467.538574,455.556458 471.103302,449.934784 475.187958,444.212280 
z"/>
<path fill="#000000" opacity="1.000000" stroke="none" 
	d="
M525.110474,633.997192 
	C531.938293,644.782593 532.891418,656.145630 529.976929,667.868347 
	C528.534668,673.669556 525.111206,678.604797 519.850098,681.611511 
	C516.217041,683.687866 516.097595,685.810242 517.603455,689.272278 
	C521.783142,698.881531 525.717468,708.598877 529.643494,718.316040 
	C530.805847,721.192993 532.484070,723.968384 532.298218,727.609680 
	C523.655151,729.671631 514.876709,729.263794 506.160889,729.446777 
	C503.734741,729.497742 503.628326,727.081177 503.039673,725.462341 
	C499.517456,715.775574 496.091553,706.053833 492.601929,696.355164 
	C492.051270,694.824707 491.693848,693.158142 489.822601,692.479370 
	C485.487518,690.906799 482.785248,692.715576 483.466522,697.310608 
	C484.795288,706.272034 483.936188,715.266968 484.402893,724.229065 
	C484.589966,727.821655 483.589264,729.430237 479.748657,729.317688 
	C473.261108,729.127502 466.761871,729.230896 460.269958,729.346436 
	C457.518829,729.395386 456.470490,728.404236 456.481110,725.549927 
	C456.602173,692.915955 456.630280,660.281616 456.659454,627.647339 
	C456.661865,624.976501 456.698090,622.622925 460.433807,622.677979 
	C476.543854,622.915710 492.707672,621.670959 508.711151,624.638794 
	C515.150940,625.833069 520.680359,628.569153 525.110474,633.997192 
M502.781830,650.959717 
	C499.784210,643.689453 493.292236,645.739563 487.729156,645.321167 
	C485.151947,645.127380 484.147034,646.407837 484.201508,648.909119 
	C484.295654,653.233337 484.297424,657.560364 484.283417,661.885986 
	C484.257385,669.921265 484.241028,669.921143 492.527740,669.672424 
	C500.164093,669.443237 503.470093,666.188354 503.628082,658.640381 
	C503.676605,656.323181 503.878082,653.970947 502.781830,650.959717 
z"/>
<path fill="#000000" opacity="1.000000" stroke="none" 
	d="
M360.550568,654.722534 
	C363.154114,672.590576 362.819916,690.012451 358.930206,707.162231 
	C355.868408,720.661682 345.009949,728.552734 329.810120,729.196838 
	C317.179260,729.732056 304.527710,729.772217 291.894684,730.269592 
	C287.759186,730.432373 286.483765,729.082092 286.507446,724.882629 
	C286.687836,692.926880 286.740875,660.969055 286.541992,629.013733 
	C286.510529,623.960876 287.937103,622.381836 293.000244,622.549744 
	C305.792877,622.973877 318.604767,622.330322 331.392609,623.620117 
	C344.181122,624.909851 353.266571,630.884155 357.722809,643.199829 
	C359.023285,646.793884 360.125366,650.452942 360.550568,654.722534 
M330.665680,703.178528 
	C332.975220,700.737610 333.765533,697.777100 333.755829,694.491211 
	C333.720490,682.513794 333.817535,670.535217 333.682343,658.559143 
	C333.581757,649.650818 329.850189,645.920288 320.953400,645.353882 
	C314.323883,644.931763 313.996887,645.267761 314.137726,652.106628 
	C314.202759,655.266602 314.292145,658.429504 314.229492,661.588196 
	C313.965698,674.885620 313.779358,688.186890 313.275818,701.475830 
	C313.113464,705.759888 314.714874,706.967712 318.752411,706.774170 
	C322.830414,706.578735 326.681213,706.062622 330.665680,703.178528 
z"/>
<path fill="#000000" opacity="1.000000" stroke="none" 
	d="
M770.998901,622.656006 
	C780.644836,622.558777 789.790405,622.626343 798.768555,624.652283 
	C807.713196,626.670471 813.964417,632.182800 817.357056,640.534180 
	C822.381287,652.901794 823.518433,665.894897 822.681641,679.145752 
	C822.167847,687.281189 821.293945,695.344299 819.275024,703.254089 
	C814.780823,720.861511 804.502136,728.959900 786.411011,729.313660 
	C775.435425,729.528259 764.463623,729.924500 753.488464,730.164490 
	C746.646973,730.314148 746.548157,730.245911 746.697815,723.188538 
	C747.198792,699.567200 748.097107,675.951111 747.575623,652.317749 
	C747.395813,644.170105 747.248657,636.019470 746.886414,627.879089 
	C746.716064,624.051514 748.043640,622.448608 752.026978,622.599976 
	C758.176208,622.833740 764.341064,622.658020 770.998901,622.656006 
M774.345093,676.765503 
	C774.100220,685.245239 774.854126,693.754028 773.477844,702.205688 
	C773.197937,703.924500 772.921509,705.851440 775.501038,706.589600 
	C785.697266,709.507507 794.570557,703.078735 794.650208,692.499634 
	C794.730469,681.838806 794.691589,671.176758 794.664673,660.515381 
	C794.635071,648.786621 790.753662,645.176575 778.882324,645.230957 
	C775.363464,645.247131 774.027649,646.366760 774.468628,649.902832 
	C775.545654,658.537659 775.233765,667.184509 774.345093,676.765503 
z"/>
<path fill="#000000" opacity="1.000000" stroke="none" 
	d="
M615.698730,718.205078 
	C608.483521,726.255676 599.312988,729.647095 589.406128,730.892395 
	C577.668091,732.367920 566.101501,731.817810 555.884949,724.584900 
	C546.304504,717.802307 542.212830,707.848389 541.013000,696.838074 
	C539.246582,680.626831 538.488281,664.324463 541.651184,648.128357 
	C545.008606,630.936218 557.136597,620.980408 574.581543,620.602539 
	C585.626465,620.363281 596.146118,621.621399 605.502747,628.114868 
	C614.839172,634.594482 617.643311,643.911133 617.170837,654.662048 
	C617.028809,657.895020 615.238708,659.396423 611.969360,659.343689 
	C607.474426,659.271179 602.948181,659.027039 598.489014,659.438293 
	C593.797791,659.870850 591.723755,658.285889 590.859863,653.529541 
	C589.361877,645.282288 585.835327,642.835938 577.726379,643.232117 
	C572.233765,643.500488 568.507629,646.734375 568.434265,652.278442 
	C568.233765,667.429321 568.231018,682.587341 568.480408,697.737061 
	C568.550293,701.983032 570.184692,705.992126 574.804932,707.609741 
	C579.762146,709.345459 584.776978,709.583557 588.962769,705.957458 
	C592.715515,702.706482 592.532532,697.907593 592.487183,693.429810 
	C592.463379,691.076355 590.313232,691.410461 588.687134,691.256653 
	C582.387756,690.660767 581.746765,689.946594 581.675171,683.564941 
	C581.518860,669.629822 581.518860,669.625244 595.200928,669.659424 
	C600.862732,669.673523 606.524597,669.721741 612.186401,669.735535 
	C615.559937,669.743713 617.413940,671.029541 617.381714,674.781006 
	C617.271606,687.602661 617.333069,700.425964 617.345886,713.248596 
	C617.347595,714.953613 617.163574,716.575928 615.698730,718.205078 
z"/>
<path fill="#000000" opacity="1.000000" stroke="none" 
	d="
M448.156250,728.438721 
	C440.957794,729.861633 434.094879,729.046204 427.293701,729.488953 
	C425.029205,729.636353 424.039978,728.574036 423.608704,726.398621 
	C422.834290,722.492065 421.474213,718.676025 420.990936,714.744507 
	C420.519836,710.912170 418.536011,710.184875 415.221527,710.406982 
	C409.910217,710.763000 404.575531,711.160156 399.265320,711.012695 
	C395.337036,710.903564 393.986176,712.811584 393.401001,716.174805 
	C392.775208,719.771362 391.965729,723.335876 391.239044,726.914917 
	C390.780365,729.174011 389.562744,730.452637 387.096588,730.260559 
	C380.798553,729.770203 374.497467,729.319153 368.198914,728.835266 
	C364.301178,728.535767 363.248657,726.792908 364.306854,722.841125 
	C370.062378,701.347534 375.585602,679.791748 381.177063,658.254333 
	C383.805237,648.130981 386.490875,638.021301 388.978241,627.863342 
	C389.913879,624.042236 391.741882,622.377502 395.914520,622.564331 
	C403.391541,622.899231 410.896515,622.772400 418.385071,622.614075 
	C421.696228,622.544006 423.511322,623.505005 424.387604,626.985474 
	C432.495697,659.190552 441.345856,691.197021 450.407196,723.145752 
	C450.994507,725.216492 452.666534,727.844360 448.156250,728.438721 
M412.767822,677.490234 
	C410.857910,669.643555 409.591187,661.622864 406.599731,652.861145 
	C403.281372,665.228394 400.910156,676.515625 398.771973,688.048096 
	C399.739990,688.279358 400.361786,688.561951 400.977417,688.548950 
	C402.631744,688.514343 404.288391,688.401733 405.935394,688.234619 
	C415.224884,687.291931 415.224030,687.283386 412.767822,677.490234 
z"/>
<path fill="#000000" opacity="1.000000" stroke="none" 
	d="
M176.020493,731.430054 
	C166.920029,733.223389 158.349869,732.793945 150.071198,729.675781 
	C138.488968,725.313416 132.108261,716.472046 130.841721,704.485718 
	C128.898529,686.095703 128.794693,667.606812 130.682922,649.192078 
	C132.276871,633.647400 143.278305,623.278687 158.904175,621.655334 
	C164.563644,621.067383 170.193436,620.915039 175.770294,621.941162 
	C191.387070,624.814514 200.459747,635.353821 201.293564,651.369446 
	C201.354126,652.532776 201.355667,653.701233 201.334579,654.866394 
	C201.117661,666.850037 202.726974,664.884766 190.973404,665.836121 
	C186.819687,666.172302 181.291306,668.248779 178.646210,664.748962 
	C176.498566,661.907471 177.421066,656.785706 176.867523,652.690674 
	C175.844711,645.124084 171.961105,642.168884 164.613205,643.463928 
	C160.206238,644.240662 157.329224,646.602234 157.333664,651.491272 
	C157.348785,668.146729 157.280777,684.802734 157.409195,701.457336 
	C157.450928,706.872192 160.061996,709.301086 165.404221,709.667419 
	C172.623505,710.162354 175.613235,708.423584 176.410431,702.593018 
	C176.926086,698.821655 176.745270,694.949158 176.789841,691.120972 
	C176.825958,688.018066 178.239853,686.589539 181.402390,686.652100 
	C186.563614,686.754150 191.728241,686.711243 196.891220,686.686340 
	C199.133743,686.675537 201.055115,687.248901 201.067993,689.849182 
	C201.131287,702.615845 200.984009,715.328003 190.220245,724.776184 
	C186.219254,728.288147 181.572372,730.288269 176.020493,731.430054 
z"/>
<path fill="#000000" opacity="1.000000" stroke="none" 
	d="
M834.121582,641.657715 
	C834.035950,636.690002 834.031433,632.191711 833.926025,627.695740 
	C833.844849,624.234924 835.126465,622.575684 838.904480,622.603943 
	C855.562500,622.728638 872.222717,622.721313 888.880615,622.585449 
	C892.539368,622.555664 894.089478,623.958252 894.012939,627.521912 
	C893.592407,647.111267 896.305664,644.378418 877.759705,645.210999 
	C873.768433,645.390198 869.761230,645.405518 865.767761,645.285095 
	C862.655579,645.191345 861.115601,646.213928 861.299622,649.582458 
	C861.499207,653.236816 861.464111,656.914246 861.324158,660.573669 
	C861.208862,663.589966 862.442993,664.734558 865.446228,664.682190 
	C872.274170,664.563049 879.107666,664.750183 885.935242,664.622498 
	C889.084961,664.563599 890.510071,665.636902 890.369080,668.939880 
	C890.191589,673.096924 890.187073,677.274048 890.376953,681.430237 
	C890.549133,685.202332 888.808594,686.399109 885.277954,686.322510 
	C878.950623,686.185181 872.607483,686.518005 866.291321,686.221130 
	C862.217224,686.029724 860.983521,687.581055 861.237732,691.432861 
	C861.500427,695.414001 861.448914,699.431946 861.266113,703.421509 
	C861.113281,706.756836 862.570435,707.764160 865.721375,707.715393 
	C873.548889,707.594238 881.382751,707.833313 889.208618,707.668762 
	C893.120728,707.586487 894.590820,709.101990 894.383728,712.978333 
	C894.153015,717.297241 894.218567,721.642212 894.372253,725.968079 
	C894.484436,729.124146 893.350525,730.433533 890.059509,730.413879 
	C873.067932,730.312561 856.074707,730.279480 839.083740,730.421936 
	C834.319214,730.461792 833.723022,727.865540 833.713623,724.039185 
	C833.655212,700.221252 835.212646,676.424805 834.629150,652.602295 
	C834.543579,649.109192 834.319336,645.619446 834.121582,641.657715 
z"/>
<path fill="#000000" opacity="1.000000" stroke="none" 
	d="
M268.435486,685.782227 
	C260.535187,686.099548 253.044083,686.364868 245.559692,686.236633 
	C241.825775,686.172729 239.935898,687.066650 240.281769,691.243530 
	C240.596848,695.048584 240.601349,698.921204 240.282791,702.725525 
	C239.933716,706.893860 241.815018,707.853027 245.549332,707.765076 
	C253.373505,707.580811 261.207336,707.828003 269.033051,707.679077 
	C272.789185,707.607605 274.589996,708.823059 274.363983,712.852478 
	C274.121857,717.169617 274.217590,721.513611 274.343597,725.840698 
	C274.433014,728.912720 273.424744,730.411072 270.075134,730.393616 
	C252.752640,730.303040 235.429245,730.313110 218.106613,730.390747 
	C214.680679,730.406067 213.500107,729.105896 213.514206,725.625854 
	C213.645859,693.145813 213.705063,660.664795 213.569702,628.184998 
	C213.550949,623.688049 215.135559,622.520203 219.388046,622.571167 
	C235.542740,622.764893 251.702225,622.743591 267.857513,622.574463 
	C271.860291,622.532593 273.792358,623.652222 273.386261,627.912354 
	C273.150269,630.388245 273.398285,632.906555 273.338257,635.403503 
	C273.105072,645.108215 274.985077,644.006042 264.109283,644.918579 
	C257.650818,645.460388 251.125809,645.333252 244.632462,645.282715 
	C241.379898,645.257446 240.136139,646.530884 240.309967,649.742981 
	C240.498764,653.231567 240.521912,656.742615 240.365494,660.232605 
	C240.206253,663.785217 241.795959,664.811035 245.171722,664.708923 
	C251.828232,664.507324 258.498657,664.781372 265.156647,664.606018 
	C268.711670,664.512390 270.609161,665.651794 270.198853,669.427612 
	C269.615417,674.796875 271.585541,680.379944 268.435486,685.782227 
z"/>
<path fill="#000000" opacity="1.000000" stroke="none" 
	d="
M658.310791,671.000000 
	C658.062988,682.153198 658.774536,692.836914 657.484131,703.453674 
	C657.059082,706.950195 658.581604,707.779724 661.713440,707.741516 
	C670.043152,707.639771 678.379456,707.908997 686.704712,707.698181 
	C691.105713,707.586670 692.692444,709.295959 692.390930,713.590027 
	C692.123169,717.403992 692.251282,721.252441 692.340515,725.082581 
	C692.408142,727.982849 691.271423,729.343140 688.242798,729.333313 
	C670.580933,729.275879 652.918396,729.247742 635.256897,729.342957 
	C631.205261,729.364807 630.692871,727.086121 630.718384,723.868042 
	C630.840149,708.539307 630.931641,693.209839 630.936218,677.880676 
	C630.941101,661.385132 630.947571,644.887878 630.705139,628.395081 
	C630.642700,624.149963 631.782104,622.285583 636.318909,622.580017 
	C641.462646,622.913818 646.665710,622.949890 651.803894,622.577271 
	C656.817444,622.213562 658.168884,624.499390 658.149353,629.011475 
	C658.089417,642.840515 658.241028,656.670410 658.310791,671.000000 
z"/>
<path fill="#000000" opacity="1.000000" stroke="none" 
	d="
M702.692200,663.000366 
	C702.680664,650.844788 702.767761,639.187988 702.605652,627.534607 
	C702.555237,623.911804 703.719421,622.443298 707.475708,622.589111 
	C713.460876,622.821411 719.463318,622.730713 725.455383,622.615540 
	C728.753296,622.552246 730.346680,623.725464 730.336792,627.236206 
	C730.244873,659.871277 730.211243,692.506653 730.230591,725.141907 
	C730.232544,728.504089 728.619080,729.425110 725.582031,729.364197 
	C719.923157,729.250732 714.249268,729.123413 708.602478,729.411438 
	C704.088013,729.641663 702.504639,728.106567 702.559143,723.441956 
	C702.792603,703.463623 702.680664,683.481262 702.692200,663.000366 
z"/>
<path fill="#000000" opacity="1.000000" stroke="none" 
	d="
M466.049835,780.844482 
	C463.014709,791.461853 460.023895,801.673035 457.237701,811.939636 
	C456.365082,815.155212 454.879089,816.544250 451.334686,816.436646 
	C435.424500,815.953674 439.292358,818.733398 434.780212,804.151245 
	C433.260773,799.240662 431.957214,794.263245 430.237885,788.197632 
	C427.237305,794.289246 425.949493,799.851929 424.260864,805.251648 
	C419.999481,818.878052 422.858612,815.826050 409.330017,816.444885 
	C404.686462,816.657288 402.593140,815.230347 401.435638,810.594910 
	C398.092926,797.208740 394.214783,783.956543 390.571960,770.644775 
	C390.185730,769.233459 389.370819,767.848267 390.181122,765.923584 
	C394.061157,765.234558 398.159851,765.662964 402.226959,765.792358 
	C404.589630,765.867493 404.886444,767.953857 405.353516,769.720520 
	C407.771179,778.865540 410.180573,788.012634 412.843262,798.108704 
	C415.880249,787.994263 418.835114,778.749451 421.367981,769.390381 
	C422.239532,766.169861 423.906494,764.973999 426.952057,764.973572 
	C428.784088,764.973328 430.623505,764.990234 432.446594,764.840881 
	C435.845581,764.562378 437.566467,766.096802 438.509186,769.359436 
	C441.120056,778.395813 443.986755,787.358215 447.692169,796.323486 
	C449.801361,788.172302 452.188049,780.079407 453.916870,771.848389 
	C454.973999,766.815308 457.270142,764.677063 462.391937,765.609741 
	C464.627808,766.016907 467.046021,765.100830 469.417297,766.536804 
	C469.337311,771.382874 467.146210,775.790527 466.049835,780.844482 
z"/>
<path fill="#000000" opacity="1.000000" stroke="none" 
	d="
M521.000244,807.392822 
	C518.509338,807.389893 516.477234,807.625793 514.521484,807.339600 
	C509.232819,806.565857 505.439636,808.024719 503.788544,813.533630 
	C503.353943,814.983582 502.340454,816.274109 500.583588,816.268433 
	C496.652954,816.255615 492.673309,816.898499 488.908417,815.780212 
	C488.118500,813.705078 489.289581,812.306702 489.999969,810.870361 
	C496.784943,797.151123 503.689392,783.490356 510.389374,769.730042 
	C511.819153,766.793640 513.637512,765.625061 516.933350,765.597656 
	C529.616821,765.492188 529.674316,765.360962 535.033020,776.594604 
	C540.547058,788.153992 545.940918,799.770752 551.359863,811.375305 
	C551.978638,812.700378 552.847229,813.979736 552.635620,815.903931 
	C548.639526,816.884949 544.527039,816.227295 540.458435,816.271301 
	C538.373901,816.293884 537.444580,814.717102 537.138977,813.097473 
	C536.132202,807.762390 532.660156,806.795959 527.979919,807.348633 
	C525.845825,807.600586 523.657532,807.392822 521.000244,807.392822 
M525.950317,788.390076 
	C524.437622,784.960388 522.924927,781.530701 521.039978,777.257019 
	C517.881470,783.599670 515.087463,789.025085 513.106628,795.633240 
	C518.824585,795.633240 523.535889,795.633240 528.854980,795.633240 
	C527.938049,793.288452 527.112122,791.176331 525.950317,788.390076 
z"/>
<path fill="#000000" opacity="1.000000" stroke="none" 
	d="
M580.935303,772.073608 
	C579.460693,770.113647 577.388977,769.020020 576.745850,765.933655 
	C582.737000,765.945801 589.115051,763.520569 594.038879,766.974304 
	C598.763428,770.288330 601.981506,775.750122 605.992737,780.420837 
	C609.624390,778.210999 612.345886,775.372864 614.248596,772.225220 
	C619.517822,763.507996 627.721497,765.902039 636.449402,765.278992 
	C633.462830,771.143372 629.213989,774.649902 625.950500,778.862549 
	C622.839417,782.878540 616.806091,785.864624 616.939453,790.796936 
	C617.063171,795.370605 622.488098,798.725159 625.548645,802.638794 
	C628.791992,806.786194 632.091064,810.890137 635.455505,815.125977 
	C627.720154,818.041748 621.490906,816.736450 616.425171,811.337769 
	C613.242981,807.946289 610.136841,804.483521 606.973022,801.074585 
	C606.777710,800.864136 606.375610,800.845642 605.597412,800.571228 
	C602.381287,804.057800 598.680054,807.431641 595.778687,811.391479 
	C592.749512,815.525940 589.100830,816.999634 584.231140,816.382141 
	C581.805054,816.074463 579.271057,816.843933 576.658264,815.652710 
	C577.015564,812.962646 579.110596,811.402039 580.626709,809.586060 
	C585.101807,804.225769 589.632629,798.904114 594.345093,793.753479 
	C596.502625,791.395264 596.365479,789.616394 594.309509,787.350342 
	C589.841431,782.425659 585.540161,777.349670 580.935303,772.073608 
z"/>
</svg>